<svg width="24" height="25" viewBox="0 0 24 25" fill="none" xmlns="http://www.w3.org/2000/svg">
<path fill-rule="evenodd" clip-rule="evenodd" d="M9.35786 5L17.7153 11.0286H17.7157V20.6624H1V11.0286H1.00034L9.35786 5ZM10.4144 8.0143C10.4144 8.59784 9.94138 9.07089 9.35783 9.07089C8.77431 9.07089 8.30124 8.59784 8.30124 8.0143C8.30124 7.43076 8.77431 6.95771 9.35783 6.95771C9.94138 6.95771 10.4144 7.43076 10.4144 8.0143ZM7.19868 19.2024V13.8046H11.517V19.2024H7.19868ZM9.6823 16.5169L10.7098 17.5444L10.3853 17.8689L9.35783 16.8414L8.33032 17.8689L8.00585 17.5444L9.03335 16.5169L8.00585 15.4894L8.33032 15.1649L9.35783 16.1924L10.3853 15.1649L10.7098 15.4894L9.6823 16.5169ZM18.3272 14.3941H22.7466V20.6624H18.3272V14.3941ZM19.4786 16.1479H20.3832V19.5899H19.4786V16.1479Z" fill="#9495A2"/>
</svg>
