<svg width="22" height="16" viewBox="0 0 22 16" fill="none" xmlns="http://www.w3.org/2000/svg">
<path fill-rule="evenodd" clip-rule="evenodd" d="M8.35786 0L16.7153 6.0286H16.7157V15.6624H0V6.0286H0.000338096L8.35786 0ZM9.41444 3.0143C9.41444 3.59784 8.94138 4.07089 8.35783 4.07089C7.77431 4.07089 7.30124 3.59784 7.30124 3.0143C7.30124 2.43076 7.77431 1.95771 8.35783 1.95771C8.94138 1.95771 9.41444 2.43076 9.41444 3.0143ZM6.19868 14.2024V8.80457H10.517V14.2024H6.19868ZM8.6823 11.5169L9.70984 12.5444L9.38533 12.8689L8.35783 11.8414L7.33032 12.8689L7.00585 12.5444L8.03335 11.5169L7.00585 10.4894L7.33032 10.1649L8.35783 11.1924L9.38533 10.1649L9.70984 10.4894L8.6823 11.5169ZM17.3272 9.39411H21.7466V15.6624H17.3272V9.39411ZM18.4786 11.1479H19.3832V14.5899H18.4786V11.1479Z" fill="url(#paint0_radial_1330_1618)"/>
<defs>
<radialGradient id="paint0_radial_1330_1618" cx="0" cy="0" r="1" gradientUnits="userSpaceOnUse" gradientTransform="translate(7.9018 5.00755) rotate(41.1166) scale(13.2417 16.266)">
<stop stop-color="#B9FFE6"/>
<stop offset="1" stop-color="#3EB98E"/>
</radialGradient>
</defs>
</svg>
