<svg width="14" height="20" viewBox="0 0 14 20" fill="none" xmlns="http://www.w3.org/2000/svg">
<path fill-rule="evenodd" clip-rule="evenodd" d="M1.66653 0.759766C1.48166 0.759766 1.33179 0.909636 1.33179 1.09449V2.42781C1.33179 2.61269 1.48166 2.76256 1.66653 2.76256L2.47037 2.76254V12.1037C2.47037 12.2886 2.62024 12.4384 2.80511 12.4384H2.03789V13.4712H0.599609V15.2848C0.599609 17.1864 1.60525 18.9462 3.24353 19.9116C4.88186 18.9462 5.88746 17.1864 5.88746 15.2848V13.4712H4.44918V12.4384H3.68196C3.86683 12.4384 4.0167 12.2886 4.0167 12.1037V2.76254L4.82057 2.76256C5.00541 2.76256 5.15528 2.61269 5.15528 2.42781V1.09449C5.15528 0.909636 5.00541 0.759766 4.82057 0.759766H1.66653ZM9.53233 19.9116C9.34746 19.9116 9.19759 19.7617 9.19759 19.5768V18.2435C9.19759 18.0587 9.34746 17.9088 9.53233 17.9088L10.3362 17.9088V8.56764C10.3362 8.38277 10.486 8.23292 10.6709 8.23292H9.90368V7.60049H9.24753C8.71669 7.60049 8.28636 7.17016 8.28636 6.63931V0.759766H13.8971V6.63931C13.8971 7.17016 13.4668 7.60049 12.9359 7.60049H12.315V8.23292H11.5478C11.7326 8.23292 11.8825 8.38277 11.8825 8.56764V17.9088L12.6864 17.9088C12.8712 17.9088 13.0211 18.0587 13.0211 18.2435V19.5768C13.0211 19.7617 12.8712 19.9116 12.6864 19.9116H9.53233ZM3.48758 14.4283H2.99945V17.4919H3.48758V14.4283ZM10.8477 2.6483H11.3358V5.71195H10.8477V2.6483Z" fill="white"/>
</svg>
