<svg width="24" height="25" viewBox="0 0 24 25" fill="none" xmlns="http://www.w3.org/2000/svg">
<path fill-rule="evenodd" clip-rule="evenodd" d="M6.66653 2.75952C6.48166 2.75952 6.33179 2.90939 6.33179 3.09425V4.42757C6.33179 4.61244 6.48166 4.76231 6.66653 4.76231L7.47037 4.76229V14.1035C7.47037 14.2883 7.62024 14.4382 7.80511 14.4382H7.03789V15.471H5.59961V17.2845C5.59961 19.1861 6.60525 20.9459 8.24353 21.9113C9.88186 20.9459 10.8875 19.1861 10.8875 17.2845V15.471H9.44918V14.4382H8.68196C8.86683 14.4382 9.0167 14.2883 9.0167 14.1035V4.76229L9.82057 4.76231C10.0054 4.76231 10.1553 4.61244 10.1553 4.42757V3.09425C10.1553 2.90939 10.0054 2.75952 9.82057 2.75952H6.66653ZM14.5323 21.9113C14.3475 21.9113 14.1976 21.7615 14.1976 21.5766V20.2433C14.1976 20.0584 14.3475 19.9085 14.5323 19.9085L15.3362 19.9086V10.5674C15.3362 10.3825 15.486 10.2327 15.6709 10.2327H14.9037V9.60024H14.2475C13.7167 9.60024 13.2864 9.16991 13.2864 8.63907V2.75952H18.8971V8.63907C18.8971 9.16991 18.4668 9.60024 17.9359 9.60024H17.315V10.2327H16.5478C16.7326 10.2327 16.8825 10.3825 16.8825 10.5674V19.9086L17.6864 19.9085C17.8712 19.9085 18.0211 20.0584 18.0211 20.2433V21.5766C18.0211 21.7615 17.8712 21.9113 17.6864 21.9113H14.5323ZM8.48758 16.428H7.99945V19.4917H8.48758V16.428ZM15.8477 4.64805H16.3358V7.71171H15.8477V4.64805Z" fill="#9495A2"/>
</svg>
