<svg width="167" height="189" viewBox="0 0 167 189" fill="none" xmlns="http://www.w3.org/2000/svg">
<path fill-rule="evenodd" clip-rule="evenodd" d="M41.6295 157.17C48.2154 163.756 56.5845 162.581 64.6479 161.449C70.0293 160.693 75.2748 159.957 79.7634 161.559C83.0091 162.718 85.1579 164.161 85.1579 164.161L85.0404 163.97L84.8621 163.678L85.19 163.878L85.3452 163.974C85.3452 163.974 83.9019 161.825 82.7434 158.579C81.1412 154.091 81.8776 148.845 82.6331 143.464C83.765 135.4 84.94 127.031 78.3541 120.445C67.3728 109.464 51.7707 110.304 41.6295 120.445C31.4882 130.587 30.6482 146.189 41.6295 157.17Z" fill="white"/>
<path fill-rule="evenodd" clip-rule="evenodd" d="M28.355 110.973C27.0627 109.154 26.0078 107.08 25.4688 104.772C23.2222 95.1549 30.7893 85.1194 30.7893 85.1194C30.7893 85.1194 41.9987 90.6769 44.2452 100.294C46.1682 108.527 40.9007 117.065 39.3436 119.354C38.3743 117.652 35.0189 112.414 29.8389 111.204C29.3449 111.089 28.8491 111.014 28.355 110.973Z" fill="white"/>
<path d="M28.7473 112.296C34.9554 113.746 38.5428 120.982 38.5428 120.982C38.5428 120.982 32.0649 125.867 25.8568 124.416C19.6486 122.966 16.0612 115.731 16.0612 115.731C16.0612 115.731 22.5392 110.846 28.7473 112.296Z" fill="white"/>
<path fill-rule="evenodd" clip-rule="evenodd" d="M93.6945 105.66C92.2578 111.803 95.9244 116.199 99.457 120.435C101.815 123.262 104.113 126.017 104.795 129.173C105.288 131.455 105.225 133.207 105.225 133.207L105.293 133.071L105.397 132.864L105.399 133.124L105.4 133.248C105.4 133.248 106.12 131.65 107.574 129.823C109.585 127.297 112.867 125.847 116.233 124.359C121.278 122.129 126.514 119.814 127.951 113.671C130.346 103.428 124.288 94.7496 114.828 92.5373C105.369 90.325 96.09 95.4166 93.6945 105.66Z" fill="white"/>
<path fill-rule="evenodd" clip-rule="evenodd" d="M115.536 81.5135C116.121 80.1198 116.938 78.7717 118.073 77.637C122.805 72.9077 131.284 73.6764 131.284 73.6764C131.284 73.6764 132.091 82.1129 127.359 86.8422C123.309 90.8904 116.513 90.9102 114.64 90.8319C115.272 89.666 117.088 85.8635 115.933 82.4502C115.823 82.1247 115.689 81.8125 115.536 81.5135Z" fill="white"/>
<path d="M114.915 82.2121C116.299 86.3029 113.417 90.9528 113.417 90.9528C113.417 90.9528 108.291 88.9703 106.907 84.8795C105.523 80.7888 108.405 76.1389 108.405 76.1389C108.405 76.1389 113.531 78.1214 114.915 82.2121Z" fill="white"/>
<path fill-rule="evenodd" clip-rule="evenodd" d="M145.035 175.429C141.544 178.919 137.109 178.296 132.835 177.697C129.983 177.296 127.203 176.906 124.824 177.755C123.104 178.369 121.965 179.134 121.965 179.134L122.028 179.033L122.122 178.878L121.948 178.984L121.866 179.035C121.866 179.035 122.631 177.896 123.245 176.176C124.094 173.797 123.704 171.017 123.303 168.165C122.703 163.891 122.081 159.456 125.571 155.965C131.391 150.145 139.66 150.591 145.035 155.965C150.409 161.34 150.854 169.609 145.035 175.429Z" fill="white"/>
<path fill-rule="evenodd" clip-rule="evenodd" d="M152.07 150.945C152.755 149.981 153.314 148.882 153.6 147.659C154.79 142.562 150.78 137.243 150.78 137.243C150.78 137.243 144.839 140.189 143.648 145.286C142.629 149.649 145.421 154.174 146.246 155.387C146.76 154.485 148.538 151.709 151.283 151.068C151.545 151.007 151.808 150.967 152.07 150.945Z" fill="white"/>
<path d="M151.862 151.646C148.572 152.415 146.671 156.25 146.671 156.25C146.671 156.25 150.104 158.838 153.394 158.07C156.684 157.301 158.585 153.467 158.585 153.467C158.585 153.467 155.152 150.878 151.862 151.646Z" fill="white"/>
<path fill-rule="evenodd" clip-rule="evenodd" d="M62.5532 34.2575C60.018 37.5136 58.3641 41.2127 57.3146 44.9548C57.8002 45.6687 58.2411 46.4227 58.6256 47.2182C62.6576 55.5588 59.2366 65.8378 57.9929 69.0138C62.7975 68.6172 80.1292 66.4038 89.1742 54.7868C99.741 41.2151 94.9967 19.9484 94.9967 19.9484C94.9967 19.9484 73.1201 20.6858 62.5532 34.2575ZM54.9114 69.7109C54.9114 69.7109 60.7844 56.9305 55.9521 46.9344C51.1198 36.9383 37.4121 33.5117 37.4121 33.5117C37.4121 33.5117 31.5391 46.2921 36.3714 56.2882C41.2037 66.2843 54.9114 69.7109 54.9114 69.7109Z" fill="white"/>
</svg>
