<svg width="24" height="24" viewBox="0 0 24 24" fill="none" xmlns="http://www.w3.org/2000/svg">
<path d="M13.4138 10.9215L13.8938 11.4075L14.3588 11.8925L14.8178 12.3845C18.2758 16.1485 20.2898 19.6025 19.4248 20.4675C19.0248 20.8675 18.0688 20.6515 16.7848 19.9605C15.2032 20.9521 13.3527 21.4278 11.489 21.3217C9.62529 21.2157 7.84062 20.5331 6.38179 19.3685L9.36179 16.3885C9.78052 16.5005 10.2243 16.4734 10.6263 16.3114C11.0283 16.1493 11.3668 15.861 11.5908 15.49C11.8148 15.1189 11.9122 14.6851 11.8683 14.2538C11.8244 13.8226 11.6416 13.4173 11.3474 13.099C11.0532 12.7807 10.6635 12.5665 10.2371 12.4888C9.81069 12.4111 9.37056 12.474 8.983 12.6681C8.59543 12.8622 8.28141 13.177 8.08821 13.565C7.89501 13.953 7.8331 14.3933 7.91179 14.8195L7.94679 14.9745L4.96779 17.9545C3.80284 16.4954 3.12012 14.7104 3.01406 12.8463C2.908 10.9823 3.38385 9.1313 4.37579 7.5495C3.68379 6.2665 3.46779 5.3115 3.86779 4.9105C4.84479 3.9345 9.11778 6.6255 13.4138 10.9205V10.9215ZM19.7778 4.5575C19.9767 4.75634 20.1315 4.99491 20.232 5.25763C20.3325 5.52035 20.3764 5.80131 20.3609 6.08216C20.3455 6.36301 20.2709 6.63744 20.1422 6.88753C20.0134 7.13761 19.8334 7.35773 19.6138 7.5335C20.4029 8.78682 20.8712 10.2153 20.977 11.6926C21.0829 13.1698 20.8232 14.6505 20.2208 16.0035C19.0318 14.0495 17.1508 11.8295 14.8278 9.5075L14.2908 8.9755C12.1628 6.8965 10.1348 5.2115 8.33279 4.1155C9.68596 3.51295 11.1668 3.25312 12.6442 3.35899C14.1217 3.46487 15.5503 3.93317 16.8038 4.7225C16.9795 4.50316 17.1994 4.32332 17.4493 4.19468C17.6992 4.06605 17.9733 3.99152 18.2539 3.97595C18.5345 3.96038 18.8153 4.00413 19.0778 4.10433C19.3404 4.20453 19.5789 4.35895 19.7778 4.5575Z" fill="white"/>
</svg>
