<svg width="16" height="16" viewBox="0 0 16 16" fill="none" xmlns="http://www.w3.org/2000/svg">
<path fill-rule="evenodd" clip-rule="evenodd" d="M4 9.93649C4 11.3712 5.03953 12.1547 6.04107 12.9097C6.7095 13.4135 7.36107 13.9047 7.67542 14.5681C7.90276 15.0478 7.97959 15.439 7.97959 15.439L7.98761 15.4054L8 15.3542L8.01393 15.4117L8.0204 15.439C8.0204 15.439 8.09725 15.0478 8.32458 14.5681C8.63898 13.9047 9.2905 13.4135 9.95893 12.9097C10.9605 12.1547 12 11.3712 12 9.93649C12 7.54436 10.2091 5.93649 8 5.93649C5.79086 5.93649 4 7.54436 4 9.93649Z" fill="url(#paint0_radial_1325_1434)"/>
<path fill-rule="evenodd" clip-rule="evenodd" d="M7.58545 3.45889C7.64286 3.12 7.75383 2.77925 7.94643 2.46924C8.74927 1.17703 10.6665 0.908173 10.6665 0.908173C10.6665 0.908173 11.2821 2.7344 10.4793 4.02662C9.79212 5.13263 8.28858 5.48896 7.86955 5.56868C7.94933 5.2777 8.15433 4.34178 7.72194 3.64583C7.68068 3.57941 7.63485 3.51718 7.58545 3.45889Z" fill="url(#paint1_linear_1325_1434)"/>
<path d="M7.48492 3.64584C8.00316 4.47997 7.60578 5.65881 7.60578 5.65881C7.60578 5.65881 6.36819 5.48526 5.84996 4.65113C5.33173 3.817 5.7291 2.63816 5.7291 2.63816C5.7291 2.63816 6.96669 2.81171 7.48492 3.64584Z" fill="url(#paint2_linear_1325_1434)"/>
<defs>
<radialGradient id="paint0_radial_1325_1434" cx="0" cy="0" r="1" gradientUnits="userSpaceOnUse" gradientTransform="translate(6.90687 8.97462) rotate(55.214) scale(6.43259 7.47339)">
<stop stop-color="#FF73AE"/>
<stop offset="1" stop-color="#DE345E"/>
</radialGradient>
<linearGradient id="paint1_linear_1325_1434" x1="9.23876" y1="0.908173" x2="9.23876" y2="5.56871" gradientUnits="userSpaceOnUse">
<stop stop-color="#62D6AD"/>
<stop offset="1" stop-color="#3EB98E"/>
</linearGradient>
<linearGradient id="paint2_linear_1325_1434" x1="5.7291" y1="2.63816" x2="7.59173" y2="5.66745" gradientUnits="userSpaceOnUse">
<stop stop-color="#62D6AD"/>
<stop offset="1" stop-color="#3EB98E"/>
</linearGradient>
</defs>
</svg>
