<svg width="24" height="25" viewBox="0 0 24 25" fill="none" xmlns="http://www.w3.org/2000/svg">
<path fill-rule="evenodd" clip-rule="evenodd" d="M2.08485 7.77166C1.95123 7.67331 1.76401 7.7031 1.66671 7.83818L1.31053 8.33271C1.21323 8.46779 1.24272 8.65703 1.37634 8.75538L1.63514 8.94583L1.05882 9.73227C0.960423 9.86654 0.988339 10.056 1.12116 10.1555L1.60748 10.5196C1.7403 10.619 1.92774 10.5908 2.02614 10.4565L2.60841 9.66203L6.47369 12.5064V15.0483C5.99062 15.5742 5.69524 16.2787 5.69524 17.053C5.69524 18.6806 7.00058 20 8.61078 20C9.98941 20 11.1446 19.0328 11.4483 17.7331H19.6123C19.612 17.7494 19.6118 17.7658 19.6118 17.7822C19.6118 19.0071 20.5941 20 21.8059 20C23.0176 20 24 19.0071 24 17.7822C24 16.9694 23.5674 16.2588 22.9223 15.8726V12.92C22.9223 12.7693 22.8852 12.621 22.8143 12.4884L22.2186 11.3744C22.0618 11.0812 21.7585 10.8984 21.4286 10.8984L20.0325 10.8984C20.0325 10.0985 19.391 9.44998 18.5996 9.44998H17.9433V6H15.3704V9.44998H14.7141C13.9227 9.44998 13.2811 10.0985 13.2811 10.8984L12.0394 10.8984C11.7659 10.8984 11.5074 11.0243 11.3371 11.2405L10.587 12.1921C10.4603 12.3529 10.3914 12.5522 10.3914 12.7577V14.7192C10.2881 14.6386 10.1794 14.5649 10.0658 14.4986V11.8526C10.0658 11.8016 10.0531 11.7514 10.0288 11.7068L9.44598 10.6356C9.39336 10.5389 9.29284 10.4789 9.1837 10.4789H6.77301C6.60768 10.4789 6.47369 10.6143 6.47369 10.7814V11.0013L2.08485 7.77166ZM21.8059 18.7648C22.3428 18.7648 22.778 18.3249 22.778 17.7822C22.778 17.2395 22.3428 16.7996 21.8059 16.7996C21.269 16.7996 20.8337 17.2395 20.8337 17.7822C20.8337 18.3249 21.269 18.7648 21.8059 18.7648ZM9.89664 17.053C9.89664 17.7708 9.32094 18.3527 8.61078 18.3527C7.90066 18.3527 7.32496 17.7708 7.32496 17.053C7.32496 16.3352 7.90066 15.7533 8.61078 15.7533C9.32094 15.7533 9.89664 16.3352 9.89664 17.053ZM17.8814 13.0596H12.8865V14.3593H17.8814V13.0596Z" fill="#9495A2"/>
</svg>
