<svg width="23" height="14" viewBox="0 0 23 14" fill="none" xmlns="http://www.w3.org/2000/svg">
<path fill-rule="evenodd" clip-rule="evenodd" d="M1.08485 1.77166C0.951233 1.67331 0.764011 1.7031 0.666709 1.83818L0.310534 2.33271C0.213232 2.46779 0.242719 2.65703 0.376339 2.75538L0.63514 2.94583L0.0588212 3.73227C-0.0395766 3.86654 -0.0116613 4.05603 0.121156 4.15549L0.607481 4.51959C0.740298 4.61903 0.927739 4.59081 1.02614 4.45654L1.60841 3.66203L5.47369 6.5064V9.04832C4.99062 9.57424 4.69524 10.2787 4.69524 11.053C4.69524 12.6806 6.00058 14 7.61078 14C8.98941 14 10.1446 13.0328 10.4483 11.7331H18.6123C18.612 11.7494 18.6118 11.7658 18.6118 11.7822C18.6118 13.0071 19.5941 14 20.8059 14C22.0176 14 23 13.0071 23 11.7822C23 10.9694 22.5674 10.2588 21.9223 9.8726V6.92003C21.9223 6.76933 21.8852 6.62099 21.8143 6.48842L21.2186 5.37443C21.0618 5.08115 20.7585 4.89837 20.4286 4.89837L19.0325 4.89839C19.0325 4.09846 18.391 3.44998 17.5996 3.44998H16.9433V0H14.3704V3.44998H13.7141C12.9227 3.44998 12.2811 4.09846 12.2811 4.89839L11.0394 4.89837C10.7659 4.89837 10.5074 5.02431 10.3371 5.24048L9.587 6.19214C9.46032 6.35286 9.39137 6.55224 9.39137 6.75771V8.71921C9.28811 8.63862 9.17937 8.56487 9.06581 8.49863V5.85257C9.06581 5.80158 9.05306 5.75142 9.02876 5.70675L8.44598 4.63561C8.39336 4.53892 8.29284 4.47885 8.1837 4.47885H5.77301C5.60768 4.47885 5.47369 4.61432 5.47369 4.7814V5.00128L1.08485 1.77166ZM20.8059 12.7648C21.3428 12.7648 21.778 12.3249 21.778 11.7822C21.778 11.2395 21.3428 10.7996 20.8059 10.7996C20.269 10.7996 19.8337 11.2395 19.8337 11.7822C19.8337 12.3249 20.269 12.7648 20.8059 12.7648ZM8.89664 11.053C8.89664 11.7708 8.32094 12.3527 7.61078 12.3527C6.90066 12.3527 6.32496 11.7708 6.32496 11.053C6.32496 10.3352 6.90066 9.75327 7.61078 9.75327C8.32094 9.75327 8.89664 10.3352 8.89664 11.053ZM16.8814 7.0596H11.8865V8.35926H16.8814V7.0596Z" fill="white"/>
</svg>
