<svg width="21" height="17" viewBox="0 0 21 17" fill="none" xmlns="http://www.w3.org/2000/svg">
<path fill-rule="evenodd" clip-rule="evenodd" d="M11.9244 0.239573C12.0946 0.359122 12.3375 0.400301 12.5293 0.323924C12.6939 0.258378 12.8812 0.22129 13.0801 0.22129C13.4073 0.22129 13.7036 0.321759 13.9182 0.48423C14.1344 0.647952 14.5384 0.780509 14.8019 0.731834C14.8788 0.717625 14.9591 0.710093 15.0418 0.710093C15.3563 0.710093 15.6373 0.819147 15.8225 0.990095C15.8253 0.992672 15.8297 0.990586 15.8297 0.986706C15.8297 0.563979 16.2817 0.22129 16.8393 0.22129C17.3969 0.22129 17.8489 0.563979 17.8489 0.986706C17.8489 1.02812 17.956 1.09836 17.99 1.07681C18.1652 0.965902 18.3907 0.899156 18.6368 0.899156C19.1944 0.899156 19.6465 1.24184 19.6465 1.66457C19.6465 1.72476 19.7062 1.77881 19.7627 1.76587C19.824 1.75183 19.8891 1.74429 19.9564 1.74429C20.3259 1.74429 20.6254 1.97137 20.6254 2.25149C20.6254 2.32793 20.6031 2.40041 20.5632 2.46541C20.5342 2.51258 20.5441 2.57976 20.5924 2.60455C20.6665 2.64264 20.6404 2.75868 20.5577 2.75868H19.9564H6.28059C6.00238 2.75868 5.84019 2.43235 6.00126 2.19665L6.09351 2.06165C6.18594 1.92639 6.16805 1.74577 6.10135 1.59505C6.05525 1.49088 6.03027 1.37936 6.03027 1.26342C6.03027 0.687865 6.6457 0.22129 7.40491 0.22129C7.77441 0.22129 8.10984 0.331801 8.35686 0.511606C8.49404 0.611465 8.67674 0.642612 8.83569 0.587706C8.98537 0.536001 9.15172 0.507196 9.32695 0.507196C9.43017 0.507196 9.53033 0.517191 9.62581 0.535976C9.82192 0.574561 10.0407 0.482592 10.1874 0.341943C10.4047 0.133654 10.7409 0 11.1184 0C11.4296 0 11.7129 0.0908921 11.9244 0.239573ZM20.9092 3.34516H5.58907V5.30803L4.87878 4.30306L0 6.15232L0.34693 7.14044L4.51233 5.56158L5.58907 7.08503V14.2535H16.7519L17.5755 14.889C17.42 15.7804 17.9346 16.6679 18.7901 16.9276C19.7049 17.2053 20.6631 16.6598 20.9303 15.7093C21.1976 14.7588 20.6726 13.7632 19.7578 13.4855C19.4256 13.3847 19.0877 13.3924 18.7792 13.4887L17.6757 12.6371L20.9092 3.34516ZM16.2832 7.09722H10.2151V8.79932H16.2832V7.09722ZM9.40811 14.7247H5.58907V16.8077H7.50769L9.40811 14.7247ZM19.0831 15.8853C19.4438 15.9948 19.8217 15.7797 19.9271 15.4048C20.0325 15.03 19.8255 14.6374 19.4647 14.5279C19.104 14.4184 18.7261 14.6335 18.6207 15.0083C18.5153 15.3831 18.7223 15.7758 19.0831 15.8853Z" fill="white"/>
</svg>
