<svg width="24" height="25" viewBox="0 0 24 25" fill="none" xmlns="http://www.w3.org/2000/svg">
<path fill-rule="evenodd" clip-rule="evenodd" d="M11.9244 4.23957C12.0946 4.35912 12.3375 4.4003 12.5293 4.32392C12.6939 4.25838 12.8812 4.22129 13.0801 4.22129C13.4073 4.22129 13.7036 4.32176 13.9182 4.48423C14.1344 4.64795 14.5384 4.78051 14.8019 4.73183C14.8788 4.71763 14.9591 4.71009 15.0418 4.71009C15.3563 4.71009 15.6373 4.81915 15.8225 4.99009C15.8253 4.99267 15.8297 4.99059 15.8297 4.98671C15.8297 4.56398 16.2817 4.22129 16.8393 4.22129C17.3969 4.22129 17.8489 4.56398 17.8489 4.98671C17.8489 5.02812 17.956 5.09836 17.99 5.07681C18.1652 4.9659 18.3907 4.89916 18.6368 4.89916C19.1944 4.89916 19.6465 5.24184 19.6465 5.66457C19.6465 5.72476 19.7062 5.77881 19.7627 5.76587C19.824 5.75183 19.8891 5.74429 19.9564 5.74429C20.3259 5.74429 20.6254 5.97137 20.6254 6.25149C20.6254 6.32793 20.6031 6.40041 20.5632 6.46541C20.5342 6.51258 20.5441 6.57976 20.5924 6.60455C20.6665 6.64264 20.6404 6.75868 20.5577 6.75868H19.9564H6.28059C6.00238 6.75868 5.84019 6.43235 6.00126 6.19665L6.09351 6.06165C6.18594 5.92639 6.16805 5.74577 6.10135 5.59505C6.05525 5.49088 6.03027 5.37936 6.03027 5.26342C6.03027 4.68786 6.6457 4.22129 7.40491 4.22129C7.77441 4.22129 8.10984 4.3318 8.35686 4.51161C8.49404 4.61147 8.67674 4.64261 8.83569 4.58771C8.98537 4.536 9.15172 4.5072 9.32695 4.5072C9.43017 4.5072 9.53033 4.51719 9.62581 4.53598C9.82192 4.57456 10.0407 4.48259 10.1874 4.34194C10.4047 4.13365 10.7409 4 11.1184 4C11.4296 4 11.7129 4.09089 11.9244 4.23957ZM20.9092 7.34516H5.58907V9.30803L4.87878 8.30306L0 10.1523L0.34693 11.1404L4.51233 9.56158L5.58907 11.085V18.2535H16.7519L17.5755 18.889C17.42 19.7804 17.9346 20.6679 18.7901 20.9276C19.7049 21.2053 20.6631 20.6598 20.9303 19.7093C21.1976 18.7588 20.6726 17.7632 19.7578 17.4855C19.4256 17.3847 19.0877 17.3924 18.7792 17.4887L17.6757 16.6371L20.9092 7.34516ZM16.2832 11.0972H10.2151V12.7993H16.2832V11.0972ZM9.40811 18.7247H5.58907V20.8077H7.50769L9.40811 18.7247ZM19.0831 19.8853C19.4438 19.9948 19.8217 19.7797 19.9271 19.4048C20.0325 19.03 19.8255 18.6374 19.4647 18.5279C19.104 18.4184 18.7261 18.6335 18.6207 19.0083C18.5153 19.3831 18.7223 19.7758 19.0831 19.8853Z" fill="#9495A2"/>
</svg>
