<svg width="24" height="25" viewBox="0 0 24 25" fill="none" xmlns="http://www.w3.org/2000/svg">
<path fill-rule="evenodd" clip-rule="evenodd" d="M20.9217 11.2356L15.5866 12.8394L16.0223 11.0717C16.4102 11.3088 16.9169 11.187 17.1547 10.7994L17.3939 10.4093C17.6319 10.0213 17.5103 9.51384 17.1223 9.27585L8.71418 4.11875C8.32616 3.88076 7.81868 4.00238 7.58069 4.3904L7.34147 4.78042C7.1037 5.16808 7.22488 5.67497 7.61205 5.91324L6.61658 6.77252L6.46452 6.58925C5.783 5.76783 4.58233 5.61323 3.71496 6.23521C2.84821 6.85675 2.60907 8.04241 3.16714 8.95132L3.48767 9.47336L2.99184 9.90135C1.16152 11.4813 1.39714 14.3852 3.45823 15.6494L6.34247 17.4184L9.22671 19.1875C11.2878 20.4516 13.9831 19.3454 14.5617 16.9977L14.9278 15.5127L21.2957 12.1635C21.4199 12.0982 21.4749 11.9497 21.4232 11.8192L21.2562 11.3976C21.2037 11.2649 21.0584 11.1946 20.9217 11.2356ZM5.99256 7.31117L5.83022 7.11551C5.42497 6.62707 4.71102 6.53514 4.19525 6.905C3.67986 7.27458 3.53766 7.97961 3.8695 8.52007L4.11979 8.92772L5.99256 7.31117ZM14.3634 11.9043L7.90062 7.94031L7.37209 8.80202L13.8349 12.766L14.3634 11.9043ZM20.7554 13.4517C20.7554 13.3205 20.6491 13.2142 20.5178 13.2142C20.3866 13.2142 20.2802 13.3205 20.2802 13.4517V16.3699C20.13 15.6656 19.5042 15.1373 18.7551 15.1373H18.0422C18.0422 15.9986 18.7404 16.6968 19.6017 16.6968H20.2802V19.0929C20.2802 19.1256 20.2869 19.1568 20.2988 19.1851H18.8235C18.7432 19.1851 18.6781 19.2502 18.6781 19.3305C18.6781 19.4108 18.7432 19.4759 18.8235 19.4759H22.214C22.2943 19.4759 22.3594 19.4108 22.3594 19.3305C22.3594 19.2502 22.2943 19.1851 22.214 19.1851H20.7369C20.7488 19.1568 20.7554 19.1256 20.7554 19.0929V18.3647H21.3796C22.2409 18.3647 22.9391 17.6664 22.9391 16.8052H22.2262C21.5472 16.8052 20.9695 17.2391 20.7554 17.8449V15.3889H21.4358C22.2971 15.3889 22.9953 14.6907 22.9953 13.8294H22.2824C21.5302 13.8294 20.9024 14.362 20.7554 15.0707V13.4517Z" fill="#9495A2"/>
</svg>
