<svg width="22" height="17" viewBox="0 0 22 17" fill="none" xmlns="http://www.w3.org/2000/svg">
<path fill-rule="evenodd" clip-rule="evenodd" d="M19.9217 8.2357L14.5866 9.83947L15.0223 8.07175C15.4102 8.30882 15.9169 8.18706 16.1547 7.79942L16.3939 7.4094C16.6319 7.02138 16.5103 6.5139 16.1223 6.27591L7.71418 1.11881C7.32616 0.880822 6.81868 1.00244 6.58069 1.39046L6.34147 1.78048C6.1037 2.16814 6.22488 2.67504 6.61205 2.9133L5.61658 3.77258L5.46452 3.58931C4.783 2.76789 3.58233 2.61329 2.71496 3.23528C1.84821 3.85681 1.60907 5.04247 2.16714 5.95138L2.48767 6.47342L1.99184 6.90141C0.161518 8.48132 0.397142 11.3853 2.45823 12.6494L5.34247 14.4185L8.22671 16.1875C10.2878 17.4517 12.9831 16.3454 13.5617 13.9978L13.9278 12.5127L20.2957 9.16356C20.4199 9.09822 20.4749 8.94974 20.4232 8.81924L20.2562 8.39764C20.2037 8.26499 20.0584 8.19463 19.9217 8.2357ZM4.99256 4.31123L4.83022 4.11557C4.42497 3.62713 3.71102 3.53521 3.19525 3.90506C2.67986 4.27464 2.53766 4.97967 2.8695 5.52013L3.11979 5.92778L4.99256 4.31123ZM13.3634 8.90433L6.90062 4.94037L6.37209 5.80208L12.8349 9.76603L13.3634 8.90433ZM19.7554 10.4518C19.7554 10.3206 19.6491 10.2142 19.5178 10.2142C19.3866 10.2142 19.2802 10.3206 19.2802 10.4518V13.37C19.13 12.6656 18.5042 12.1374 17.7551 12.1374H17.0422C17.0422 12.9987 17.7404 13.6969 18.6017 13.6969H19.2802V16.093C19.2802 16.1257 19.2869 16.1568 19.2988 16.1852H17.8235C17.7432 16.1852 17.6781 16.2503 17.6781 16.3306C17.6781 16.4109 17.7432 16.476 17.8235 16.476H21.214C21.2943 16.476 21.3594 16.4109 21.3594 16.3306C21.3594 16.2503 21.2943 16.1852 21.214 16.1852H19.7369C19.7488 16.1568 19.7554 16.1257 19.7554 16.093V15.3647H20.3796C21.2409 15.3647 21.9391 14.6665 21.9391 13.8052H21.2262C20.5472 13.8052 19.9695 14.2392 19.7554 14.8449V12.389H20.4358C21.2971 12.389 21.9953 11.6908 21.9953 10.8295H21.2824C20.5302 10.8295 19.9024 11.3621 19.7554 12.0707V10.4518Z" fill="white"/>
</svg>
