<svg width="24" height="25" viewBox="0 0 24 25" fill="none" xmlns="http://www.w3.org/2000/svg">
<path fill-rule="evenodd" clip-rule="evenodd" d="M6.78309 5.04546C6.50844 4.68845 6.17067 4.36219 5.75727 4.12167C4.03421 3.11916 1.6499 3.98573 1.6499 3.98573C1.6499 3.98573 2.05922 6.4777 3.78228 7.48021C5.25719 8.33834 7.2166 7.82699 7.75039 7.6619C7.47935 7.37418 6.66702 6.41676 6.73997 5.34553C6.74693 5.24336 6.76173 5.14322 6.78309 5.04546ZM8.19935 12.1162C9.50745 9.6515 12.0763 8.77783 14.4285 9.57292C12.8387 7.44092 10.1281 6.94569 7.82572 8.16762C5.26871 9.5247 4.18356 12.4859 5.65305 15.2547C6.37452 16.6141 7.63426 17.0405 8.95789 17.2923C8.88543 17.1327 8.8106 16.9725 8.73547 16.8117L8.73546 16.8116L8.73537 16.8114L8.73531 16.8113C8.03986 15.3223 7.31805 13.7768 8.19935 12.1162ZM8.11188 7.60369C8.11188 7.60369 6.92777 6.48332 7.0152 5.19949C7.10263 3.91566 8.42849 2.95453 8.42849 2.95453C8.42849 2.95453 9.6126 4.0749 9.52517 5.35872C9.43774 6.64255 8.11188 7.60369 8.11188 7.60369ZM18.2426 6.65895C17.8292 6.89947 17.4915 7.22573 17.2168 7.58274C17.2382 7.6805 17.253 7.78064 17.2599 7.88281C17.3329 8.95404 16.5205 9.91146 16.2495 10.1992C16.7833 10.3643 18.7427 10.8756 20.2176 10.0175C21.9407 9.01498 22.35 6.52301 22.35 6.52301C22.35 6.52301 19.9657 5.65644 18.2426 6.65895ZM9.62299 17.5726C8.92753 16.0836 8.20573 14.5381 9.08702 12.8775C10.5565 10.1087 13.6171 9.34779 16.1741 10.7049C18.7311 12.0619 19.8163 15.0231 18.3468 17.792C17.4655 19.4525 15.781 19.7209 14.158 19.9795L14.1579 19.9795C13.0747 20.1521 12.0188 20.3203 11.2474 20.895C10.6896 21.3106 10.3603 21.7163 10.3603 21.7163L10.3696 21.6807L10.3888 21.6056L10.343 21.6573L10.3131 21.6912C10.3131 21.6912 10.4645 21.1912 10.496 20.4963C10.5397 19.5353 10.0873 18.5667 9.62314 17.5729L9.62305 17.5728L9.62299 17.5726ZM16.9846 7.73674C17.0721 9.02057 15.8879 10.1409 15.8879 10.1409C15.8879 10.1409 14.5621 9.1798 14.4746 7.89597C14.3872 6.61214 15.5713 5.49178 15.5713 5.49178C15.5713 5.49178 16.8972 6.45291 16.9846 7.73674Z" fill="#9495A2"/>
</svg>
