<svg width="22" height="20" viewBox="0 0 22 20" fill="none" xmlns="http://www.w3.org/2000/svg">
<path fill-rule="evenodd" clip-rule="evenodd" d="M5.78309 3.04552C5.50844 2.68851 5.17067 2.36225 4.75727 2.12173C3.03421 1.11922 0.649902 1.98579 0.649902 1.98579C0.649902 1.98579 1.05922 4.47776 2.78228 5.48027C4.25719 6.33841 6.2166 5.82705 6.75039 5.66196C6.47935 5.37424 5.66702 4.41682 5.73997 3.34559C5.74693 3.24342 5.76173 3.14329 5.78309 3.04552ZM7.19935 10.1163C8.50745 7.65156 11.0763 6.77789 13.4285 7.57298C11.8387 5.44098 9.12808 4.94575 6.82572 6.16768C4.26871 7.52476 3.18356 10.486 4.65305 13.2548C5.37452 14.6142 6.63426 15.0406 7.95789 15.2924C7.88543 15.1328 7.8106 14.9726 7.73547 14.8117L7.73546 14.8117L7.73537 14.8115L7.73531 14.8114C7.03986 13.3223 6.31805 11.7768 7.19935 10.1163ZM7.11188 5.60375C7.11188 5.60375 5.92777 4.48338 6.0152 3.19955C6.10263 1.91572 7.42849 0.95459 7.42849 0.95459C7.42849 0.95459 8.6126 2.07496 8.52517 3.35879C8.43774 4.64262 7.11188 5.60375 7.11188 5.60375ZM17.2426 4.65901C16.8292 4.89953 16.4915 5.22579 16.2168 5.5828C16.2382 5.68057 16.253 5.7807 16.2599 5.88287C16.3329 6.9541 15.5205 7.91152 15.2495 8.19924C15.7833 8.36433 17.7427 8.87568 19.2176 8.01755C20.9407 7.01504 21.35 4.52307 21.35 4.52307C21.35 4.52307 18.9657 3.6565 17.2426 4.65901ZM8.62299 15.5727C7.92753 14.0836 7.20573 12.5381 8.08702 10.8776C9.55651 8.10878 12.6171 7.34785 15.1741 8.70493C17.7311 10.062 18.8163 13.0232 17.3468 15.792C16.4655 17.4526 14.781 17.721 13.158 17.9796L13.1579 17.9796C12.0747 18.1521 11.0188 18.3204 10.2474 18.8951C9.68958 19.3107 9.3603 19.7163 9.3603 19.7163L9.3696 19.6807L9.3888 19.6056L9.34299 19.6573L9.31306 19.6913C9.31306 19.6913 9.46447 19.1912 9.49602 18.4963C9.53971 17.5354 9.08728 16.5667 8.62314 15.573L8.62305 15.5728L8.62299 15.5727ZM15.9846 5.7368C16.0721 7.02063 14.8879 8.14099 14.8879 8.14099C14.8879 8.14099 13.5621 7.17986 13.4746 5.89603C13.3872 4.6122 14.5713 3.49184 14.5713 3.49184C14.5713 3.49184 15.8972 4.45297 15.9846 5.7368Z" fill="white"/>
</svg>
