<svg width="12" height="15" viewBox="0 0 12 15" fill="none" xmlns="http://www.w3.org/2000/svg">
<path d="M6.00003 10.8333C8.44136 10.8333 10.5767 11.8833 11.738 13.45L10.51 14.0306C9.5647 12.9106 7.89803 12.1666 6.00003 12.1666C4.10203 12.1666 2.43536 12.9106 1.49003 14.0306L0.262695 13.4493C1.42403 11.8826 3.5587 10.8333 6.00003 10.8333ZM6.00003 0.833313C6.88408 0.833313 7.73193 1.1845 8.35705 1.80962C8.98217 2.43475 9.33336 3.28259 9.33336 4.16665V6.16665C9.33336 7.0507 8.98217 7.89855 8.35705 8.52367C7.73193 9.14879 6.88408 9.49998 6.00003 9.49998C5.11597 9.49998 4.26813 9.14879 3.64301 8.52367C3.01788 7.89855 2.6667 7.0507 2.6667 6.16665V4.16665C2.6667 3.28259 3.01788 2.43475 3.64301 1.80962C4.26813 1.1845 5.11597 0.833313 6.00003 0.833313Z" fill="#3EB98E"/>
</svg>
